<svg width="128" height="55" viewBox="0 0 128 55" fill="none" xmlns="http://www.w3.org/2000/svg">
    <g clip-path="url(#clip0_2_734)">
    <path d="M39.8926 18.4905C44.8144 28.7025 40.5258 40.9708 30.3138 45.8926C20.1018 50.8144 7.83346 46.5258 2.91168 36.3138C-2.01011 26.1018 2.27846 13.8335 12.4905 8.91169C22.7025 3.9899 34.9708 8.27847 39.8926 18.4905Z" fill="url(#paint0_radial_2_734)"/>
    <path fill-rule="evenodd" clip-rule="evenodd" d="M29.8796 44.9918C39.5941 40.3098 43.6738 28.6391 38.9918 18.9246C34.3098 9.21015 22.6391 5.13052 12.9246 9.81252C3.21014 14.4945 -0.86949 26.1652 3.81251 35.8797C8.49451 45.5941 20.1652 49.6738 29.8796 44.9918ZM30.3138 45.8926C40.5258 40.9708 44.8144 28.7025 39.8926 18.4905C34.9708 8.27847 22.7025 3.9899 12.4905 8.91169C2.27846 13.8335 -2.01011 26.1018 2.91168 36.3138C7.83346 46.5258 20.1018 50.8144 30.3138 45.8926Z" fill="url(#paint1_radial_2_734)"/>
    <path d="M78.5782 13V42H75.0937L58.891 19.2305H58.6006V42H55V13H58.4845L74.7453 35.8262H75.0356V13H78.5782Z" fill="white"/>
    <path d="M84.5565 42V13H102.385V16.1152H88.1571V25.9141H101.05V29.0293H88.1571V42H84.5565Z" fill="white"/>
    <path d="M105.699 16.1152V13H128V16.1152H118.65V42H115.049V16.1152H105.699Z" fill="white"/>
    </g>
    <defs>
    <radialGradient id="paint0_radial_2_734" cx="0" cy="0" r="1" gradientUnits="userSpaceOnUse" gradientTransform="translate(13.5975 10.4814) rotate(64.7298) scale(39.1585)">
    <stop stop-color="#DEA8FF"/>
    <stop offset="0.445112" stop-color="#9D6AD9"/>
    <stop offset="1" stop-color="#7A2BF6"/>
    </radialGradient>
    <radialGradient id="paint1_radial_2_734" cx="0" cy="0" r="1" gradientUnits="userSpaceOnUse" gradientTransform="translate(13.5975 10.4814) rotate(64.7298) scale(39.1585)">
    <stop stop-color="#DEA8FF"/>
    <stop offset="0.445112" stop-color="#9D6AD9"/>
    <stop offset="1" stop-color="#7A2BF6"/>
    </radialGradient>
    <clipPath id="clip0_2_734">
    <rect width="128" height="55" fill="white"/>
    </clipPath>
    </defs>
</svg>
